Patient4_TMGait_0pt5_01_right_25_GRF.mot
version=1
nRows=58
nColumns=19
inDegrees=no
endheader
time	F1x	F1y	F1z	M1x	M1y	M1z	F2x	F2y	F2z	M2x	M2y	M2z	EC1x	EC1y	EC1z	EC2x	EC2y	EC2z
32.77	-12.3289	778.0771	88.8019	-281.935	-82.5809	728.304	-4.75	-1.489	-22.8063	4.0337	18.4547	-14.8762	-0.0592	0.0182	-0.0073	-0.0462	0.0165	0.9585
32.7836	-4.9602	771.7934	83.7673	-278.5377	-76.1254	723.4438	-3.2734	0.1301	-15.3143	3.1363	12.4305	-8.8702	-0.0592	0.0182	-0.0073	-0.0462	0.0165	0.9585
32.7973	1.3957	763.6091	79.2465	-274.6013	-70.2292	715.9408	-2.0432	1.5238	-9.0063	2.3834	7.3777	-3.7544	-0.0592	0.0182	-0.0073	-0.0462	0.0165	0.9585
32.8109	6.3918	754.4424	75.4779	-270.5252	-65.1952	706.5159	-1.1326	2.619	-4.232	1.8232	3.572	0.17779	-0.0592	0.0182	-0.0073	-0.0462	0.0165	0.9585
32.8246	10.0904	745.4738	72.4972	-266.7514	-61.066	696.2698	-0.52791	3.4058	-0.96006	1.451	0.98308	2.919	-0.0592	0.0182	-0.0073	-0.0462	0.0165	0.9585
32.8382	12.7506	737.8268	70.2304	-263.6715	-57.7464	686.3282	-0.18525	3.9087	1.0323	1.2308	-0.56817	4.6204	-0.0592	0.0182	-0.0073	-0.0462	0.0165	0.9585
32.8519	14.7007	732.3131	68.5433	-261.5521	-55.0676	677.5692	-0.055024	4.1724	2.0605	1.1161	-1.3395	5.5056	-0.0592	0.0182	-0.0073	-0.0462	0.0165	0.9585
32.8655	16.2603	729.3076	67.335	-260.4931	-52.8891	670.4888	-0.072547	4.2052	2.4138	1.0488	-1.5685	5.7558	-0.0592	0.0182	-0.0073	-0.0462	0.0165	0.9585
32.8791	17.6905	728.8013	66.4881	-260.453	-51.0599	665.2311	-0.20369	3.9923	2.3594	0.9714	-1.4706	5.5142	-0.0592	0.0182	-0.0073	-0.0462	0.0165	0.9585
32.8928	19.1697	730.4737	65.9227	-261.277	-49.474	661.6408	-0.39885	3.4707	2.0805	0.82309	-1.1954	4.818	-0.0592	0.0182	-0.0073	-0.0462	0.0165	0.9585
32.9064	20.7838	733.8294	65.5464	-262.7485	-48.0318	659.4042	-0.61298	2.5692	1.7277	0.55072	-0.87035	3.6658	-0.0592	0.0182	-0.0073	-0.0462	0.0165	0.9585
32.9201	22.5423	738.2811	65.3069	-264.6175	-46.6883	658.1104	-0.79853	1.2024	1.3842	0.10501	-0.57139	2.0158	-0.0592	0.0182	-0.0073	-0.0462	0.0165	0.9585
32.9337	24.4038	743.1871	65.1449	-266.621	-45.409	657.2891	-0.88775	-0.69832	1.1184	-0.54728	-0.3773	-0.18412	-0.0592	0.0182	-0.0073	-0.0462	0.0165	0.9585
32.9474	26.3201	747.9021	65.0223	-268.5057	-44.1833	656.4586	-0.80984	-3.1068	0.96445	-1.3995	-0.33975	-2.8841	-0.0592	0.0182	-0.0073	-0.0462	0.0165	0.9585
32.961	28.2805	751.8445	64.8897	-270.0541	-42.9736	655.1573	-0.45738	-5.8617	0.94948	-2.3892	-0.51949	-5.9199	-0.0592	0.0182	-0.0073	-0.0462	0.0165	0.9585
32.9746	30.3277	754.5385	64.7204	-271.0919	-41.7385	653.0009	0.27963	-8.554	1.082	-3.362	-0.96619	-8.8639	-0.0592	0.0182	-0.0073	-0.0462	0.0165	0.9585
32.9883	32.5476	755.6188	64.5073	-271.4908	-40.4314	649.6709	1.524	-10.4356	1.3572	-4.0355	-1.7237	-10.9348	-0.0592	0.0182	-0.0073	-0.0462	0.0165	0.9585
33.0019	35.0305	754.8389	64.2772	-271.165	-39.0332	644.9444	3.3753	-10.3233	1.7539	-3.9633	-2.8126	-10.8919	-0.0592	0.0182	-0.0073	-0.0462	0.0165	0.9585
33.0156	37.8436	752.0168	64.0721	-270.0525	-37.5471	638.6511	5.8577	-6.5341	2.2236	-2.5133	-4.192	-6.9503	-0.0592	0.0182	-0.0073	-0.0462	0.0165	0.9585
33.0292	41.0191	746.9385	63.9108	-268.0817	-35.978	630.6037	8.8712	3.0869	2.6917	1.1224	-5.7366	3.1815	-0.0592	0.0182	-0.0073	-0.0462	0.0165	0.9585
33.0429	44.5288	739.1956	63.7468	-265.1169	-34.304	620.4755	12.0749	21.0382	3.0233	7.8723	-7.1684	22.1875	-0.0592	0.0182	-0.0073	-0.0462	0.0165	0.9585
33.0565	48.2665	728.0173	63.4755	-260.9005	-32.4873	607.66	14.8039	49.7753	3.0276	18.6403	-8.0277	52.7146	-0.0592	0.0182	-0.0073	-0.0462	0.0165	0.9585
33.0701	52.0034	712.2128	62.9403	-255.0272	-30.4887	591.2347	15.9364	91.0465	2.4323	34.0539	-7.6034	96.6785	-0.0592	0.0182	-0.0073	-0.0462	0.0165	0.9585
33.0838	55.3962	690.2231	61.9446	-246.9658	-28.279	570.0038	13.9123	144.9573	0.89512	54.117	-4.9625	154.2724	-0.0592	0.0182	-0.0073	-0.0462	0.0165	0.9585
33.0974	57.9747	660.3733	60.2645	-236.1443	-25.859	542.7163	7.6106	209.3707	-1.9034	77.9818	0.62822	223.3	-0.0592	0.0182	-0.0073	-0.0462	0.0165	0.9585
33.1111	59.1947	621.2792	57.6952	-222.0894	-23.2746	508.3613	-2.387	279.6498	-6.2918	103.847	9.2801	298.8129	-0.0592	0.0182	-0.0073	-0.0462	0.0165	0.9585
33.1247	58.5484	572.2677	54.1494	-204.5707	-20.6567	466.4724	-14.2645	349.1219	-12.6224	129.176	20.632	373.484	-0.0592	0.0182	-0.0073	-0.0462	0.0165	0.9585
33.1384	55.6515	513.7918	49.677	-183.7375	-18.1887	417.4697	-26.235	413.1885	-20.5928	152.2404	33.6396	442.1146	-0.0592	0.0182	-0.0073	-0.0462	0.0165	0.9585
33.152	50.4013	447.5715	44.4887	-160.1685	-16.0719	362.7467	-37.0401	470.856	-29.417	172.7055	46.969	503.4382	-0.0592	0.0182	-0.0073	-0.0462	0.0165	0.9585
33.1656	43.0161	376.4419	38.8479	-134.8349	-14.4192	304.5532	-46.0043	523.0682	-38.22	190.996	59.4329	558.3686	-0.0592	0.0182	-0.0073	-0.0462	0.0165	0.9585
33.1793	34.0189	304.0486	33.0075	-109.008	-13.2232	245.7397	-52.7905	571.1232	-46.2777	207.6787	70.1582	608.2141	-0.0592	0.0182	-0.0073	-0.0462	0.0165	0.9585
33.1929	24.2085	234.4119	27.1989	-84.1097	-12.3564	189.433	-57.3351	615.8034	-53.0894	223.1205	78.6294	653.7602	-0.0592	0.0182	-0.0073	-0.0462	0.0165	0.9585
33.2066	14.6051	171.2925	21.669	-61.4877	-11.6243	138.5427	-59.7789	656.999	-58.5884	237.3269	84.8616	694.9064	-0.0592	0.0182	-0.0073	-0.0462	0.0165	0.9585
33.2202	6.2737	117.4446	16.6133	-42.1494	-10.7765	95.1823	-60.4026	693.6703	-62.9324	249.9401	89.1597	730.6394	-0.0592	0.0182	-0.0073	-0.0462	0.0165	0.9585
33.2339	0.0082097	74.1578	12.1496	-26.5872	-9.6067	60.3117	-59.6377	724.3729	-66.3978	260.4457	91.9936	759.5881	-0.0592	0.0182	-0.0073	-0.0462	0.0165	0.9585
33.2475	-3.8587	41.4256	8.2995	-14.819	-8.0098	33.8902	-57.9115	747.9994	-69.0435	268.4706	93.618	780.7272	-0.0592	0.0182	-0.0073	-0.0462	0.0165	0.9585
33.2611	-5.5004	18.3733	5.0861	-6.5363	-6.077	15.219	-55.6314	764.2442	-70.7827	273.9474	94.1211	793.8858	-0.0592	0.0182	-0.0073	-0.0462	0.0165	0.9585
33.2748	-5.5639	3.6117	2.5865	-1.2377	-4.1178	3.2066	-53.1	773.5313	-71.4108	277.078	93.4347	799.6193	-0.0592	0.0182	-0.0073	-0.0462	0.0165	0.9585
33.2884	-4.7707	-4.6205	0.84411	1.7132	-2.4387	-3.5269	-50.5131	776.7852	-70.85	278.2282	91.5697	798.9634	-0.0592	0.0182	-0.0073	-0.0462	0.0165	0.9585
33.3021	-3.6321	-8.1867	-0.25123	2.9865	-1.1407	-6.4726	-47.9878	775.2877	-69.1753	277.8641	88.6492	793.2879	-0.0592	0.0182	-0.0073	-0.0462	0.0165	0.9585
33.3157	-2.4681	-8.7527	-0.8246	3.1789	-0.24939	-6.9846	-45.5594	770.5069	-66.6518	276.4938	84.9533	784.1058	-0.0592	0.0182	-0.0073	-0.0462	0.0165	0.9585
33.3294	-1.4617	-7.6339	-1.0417	2.7611	0.29939	-6.1201	-43.2643	764.0262	-63.5983	274.6504	80.8183	773.0431	-0.0592	0.0182	-0.0073	-0.0462	0.0165	0.9585
33.343	-0.66966	-5.7783	-1.0207	2.0733	0.56914	-4.6463	-41.1373	757.4585	-60.3149	272.8741	76.5598	761.7423	-0.0592	0.0182	-0.0073	-0.0462	0.0165	0.9585
33.3566	-0.11025	-3.7887	-0.88404	1.3341	0.6527	-3.0377	-39.2329	752.2957	-57.0619	271.654	72.4518	751.7222	-0.0592	0.0182	-0.0073	-0.0462	0.0165	0.9585
33.3703	0.25663	-2.0082	-0.69211	0.67077	0.61112	-1.5801	-37.618	749.6654	-54.065	271.3415	68.7292	744.1473	-0.0592	0.0182	-0.0073	-0.0462	0.0165	0.9585
33.3839	0.47229	-0.5856	-0.50124	0.14016	0.51213	-0.40313	-36.3661	750.161	-51.5226	272.095	65.5947	739.6634	-0.0592	0.0182	-0.0073	-0.0462	0.0165	0.9585
33.3976	0.56977	0.4579	-0.32981	-0.24699	0.38851	0.47139	-35.5542	753.8561	-49.5745	273.8917	63.1894	738.4089	-0.0592	0.0182	-0.0073	-0.0462	0.0165	0.9585
33.4112	0.59342	1.1589	-0.19258	-0.50388	0.27105	1.0549	-35.1994	760.3809	-48.2879	276.5601	61.5643	740.061	-0.0592	0.0182	-0.0073	-0.0462	0.0165	0.9585
33.4249	0.56019	1.5946	-0.088541	-0.65896	0.16677	1.4154	-35.2305	768.9984	-47.6397	279.8152	60.6562	743.9095	-0.0592	0.0182	-0.0073	-0.0462	0.0165	0.9585
33.4385	0.50516	1.8355	-0.016907	-0.74099	0.085317	1.6108	-35.4796	778.6781	-47.5351	283.2874	60.3053	748.9375	-0.0592	0.0182	-0.0073	-0.0462	0.0165	0.9585
33.4521	0.43598	1.9464	0.02911	-0.77496	0.025284	1.6995	-35.7211	788.1961	-47.825	286.5522	60.2858	753.9257	-0.0592	0.0182	-0.0073	-0.0462	0.0165	0.9585
33.4658	0.35946	1.9741	0.050641	-0.77651	-0.0099337	1.7181	-35.7403	796.2659	-48.3502	289.1709	60.3676	757.6029	-0.0592	0.0182	-0.0073	-0.0462	0.0165	0.9585
33.4794	0.2867	1.9331	0.050152	-0.74964	-0.018616	1.6719	-35.3643	801.689	-48.9438	290.7404	60.3375	758.804	-0.0592	0.0182	-0.0073	-0.0462	0.0165	0.9585
33.4931	0.20896	1.8217	0.032978	-0.69081	-0.0085602	1.5622	-34.4797	803.558	-49.4459	290.9636	60.0183	756.6608	-0.0592	0.0182	-0.0073	-0.0462	0.0165	0.9585
33.5067	0.13193	1.5981	-0.0046539	-0.58651	0.023295	1.3301	-33.0314	801.4564	-49.7063	289.7174	59.2655	750.7853	-0.0592	0.0182	-0.0073	-0.0462	0.0165	0.9585
33.5204	0.041594	1.2081	-0.049505	-0.41786	0.05787	0.92707	-31.0095	795.4772	-49.6562	287.0521	58.0268	741.2794	-0.0592	0.0182	-0.0073	-0.0462	0.0165	0.9585
33.534	-0.062284	0.59284	-0.10707	-0.16599	0.096197	0.29395	-28.4365	786.1799	-49.3079	283.1757	56.3264	728.682	-0.0592	0.0182	-0.0073	-0.0462	0.0165	0.9585
33.5476	-0.16728	-0.30126	-0.15606	0.18718	0.12023	-0.62124	-25.3626	774.5353	-48.752	278.4368	54.2639	713.9107	-0.0592	0.0182	-0.0073	-0.0462	0.0165	0.9585
